HIERARCHY
ROOT Hips
{
  OFFSET 0 0 0
  CHANNELS 6 Xposition Yposition Zposition Zrotation Yrotation Xrotation
  JOINT LeftThigh
  {
    OFFSET 8.409438 0 -5.917753
    CHANNELS 3 Zrotation Yrotation Xrotation
    JOINT LeftLeg
    {
      OFFSET 0 0 -42.358652
      CHANNELS 3 Zrotation Yrotation Xrotation
      JOINT LeftFoot
      {
        OFFSET 0 0 -39.357303
        CHANNELS 3 Zrotation Yrotation Xrotation
      }
    }
  }
  JOINT RightThigh
  {
    OFFSET -8.409438 0 -5.917753
    CHANNELS 3 Zrotation Yrotation Xrotation
    JOINT RightLeg
    {
      OFFSET 0 0 -42.358652
      CHANNELS 3 Zrotation Yrotation Xrotation
      JOINT RightFoot
      {
        OFFSET 0 0 -39.357303
        CHANNELS 3 Zrotation Yrotation Xrotation
      }
    }
  }
  JOINT SpineLow
  {
    OFFSET 0 0 4.719101
    CHANNELS 3 Zrotation Yrotation Xrotation
    JOINT SpineMid
    {
      OFFSET 0 0 12.899191
      CHANNELS 3 Zrotation Yrotation Xrotation
      JOINT Chest
      {
        OFFSET 0 0 12.899191
        CHANNELS 3 Zrotation Yrotation Xrotation
        JOINT LeftShoulder
        {
          OFFSET 7.550562 1.41573 9.438202
          CHANNELS 3 Zrotation Yrotation Xrotation
          JOINT LeftArm
          {
            OFFSET 9.155056 0 4.247191
            CHANNELS 3 Zrotation Yrotation Xrotation
            JOINT LeftForearm
            {
              OFFSET 0 0 25.771955
              CHANNELS 3 Zrotation Yrotation Xrotation
              JOINT LeftHand
              {
                OFFSET 0 0 25.197169
                CHANNELS 3 Zrotation Yrotation Xrotation
              }
            }
          }
        }
        JOINT RightShoulder
        {
          OFFSET -7.550562 1.41573 9.438202
          CHANNELS 3 Zrotation Yrotation Xrotation
          JOINT RightArm
          {
            OFFSET -9.155056 0 4.247191
            CHANNELS 3 Zrotation Yrotation Xrotation
            JOINT RightForearm
            {
              OFFSET 0 0 -25.771955
              CHANNELS 3 Zrotation Yrotation Xrotation
              JOINT RightHand
              {
                OFFSET 0 0 -25.197169
                CHANNELS 3 Zrotation Yrotation Xrotation
              }
            }
          }
        }
        JOINT Neck
        {
          OFFSET 0 0 15.101124
          CHANNELS 3 Zrotation Yrotation Xrotation
          JOINT Head
          {
            OFFSET 0 0 11.325843
            CHANNELS 3 Zrotation Yrotation Xrotation
            End Site
            {
              OFFSET 0 0 14.157303
            }
          }
        }
      }
    }
  }
}
MOTION
Frames: 11
Frame Time: 0.0
0.0  93.25843  0.0  -7.78282  27.040712  -97.289968  19.202635  -25.471712  25.91916  0.065791  0.416829  4.867845  4.387001  2.115337  2.419508  -21.536617  -16.758738  -27.043519  -10.925717  20.19776  31.132647  -4.36652  0.964275  2.994699  1.459731  -0.386891  1.58066  3.963154  -1.151926  4.295815  3.963154  -1.151926  4.295815  -20.812903  20.383958  7.660339  154.604207  49.159258  -154.345656  -15.472446  2.220871  83.982396  70.948433  -1.670892  -5.186356  5.479717  -13.389702  13.819319  31.516343  66.851516  -8.400793  -22.472638  -38.862927  -108.786251  63.789053  6.239907  -9.381231  -18.498897  -0.220803  10.247702  -13.875132  -0.47668  7.687471  
0.0  93.25843  0.0  -7.580863  25.972821  -97.098754  18.894426  -24.741366  26.516304  1.046588  0.321118  4.648147  4.711636  2.174124  2.690637  -21.761972  -17.097851  -26.885242  -10.954877  19.877784  31.170678  -4.706777  0.940301  2.831325  1.435667  -0.380792  1.57579  3.897881  -1.133427  4.2833  3.89788  -1.133427  4.2833  -21.21788  20.432168  7.379802  154.86669  50.39023  -154.081732  -15.906599  2.058883  84.821715  71.08489  -2.1919  -5.591832  5.009868  -13.117151  13.835142  36.686474  66.222354  -4.230986  -21.219164  -37.698619  -110.90029  64.358572  5.971136  -9.500104  -17.898357  -0.081167  10.09142  -13.426809  -0.357088  7.573921  
0.0  93.25843  0.0  -7.372813  24.965695  -96.906584  18.700184  -24.12381  27.114858  1.741158  0.2946  4.425942  4.792408  2.172285  2.759051  -22.072301  -17.486222  -26.53224  -11.354543  19.860918  30.671652  -4.997196  0.926661  2.759872  1.392116  -0.378226  1.566212  3.779219  -1.123066  4.258059  3.779219  -1.123066  4.258059  -21.733063  20.511078  7.02876  155.274434  51.774864  -153.713427  -16.286426  1.872116  85.673926  71.318782  -2.800529  -6.037666  4.441853  -12.811423  13.867981  41.980666  65.585334  -0.143302  -20.452948  -36.243394  -112.60986  65.01695  5.732169  -9.674215  -17.246738  0.054094  9.977388  -12.940061  -0.241471  7.49167  
0.0  93.25843  0.0  -7.292978  23.555525  -96.844476  18.980304  -23.833496  27.614609  1.73773  0.218333  3.893232  5.374851  2.318632  3.253797  -22.15742  -18.079431  -25.870576  -11.932309  20.005352  29.71374  -5.216758  0.994695  2.74025  1.363133  -0.389905  1.549923  3.699589  -1.152195  4.213428  3.699589  -1.152195  4.213428  -22.135588  20.490464  6.635274  155.729595  53.193611  -153.361529  -16.643259  1.57169  86.563788  71.543757  -3.39986  -6.617622  4.069826  -12.572174  13.991048  47.372641  64.912996  3.986782  -20.192252  -34.594945  -113.954095  65.743334  5.522736  -9.975488  -16.526606  0.194911  9.934519  -12.402024  -0.122765  7.462647  
0.0  93.25843  0.0  -7.182264  22.506673  -96.700882  19.195925  -23.66776  28.031149  2.037154  0.310641  3.862665  5.352919  2.363857  3.307821  -22.775674  -18.697822  -25.058432  -12.470251  20.147941  28.468324  -5.355983  1.028883  2.740634  1.275006  -0.401989  1.53144  3.45838  -1.178644  4.163912  3.45838  -1.178644  4.163912  -22.693294  20.437894  6.054026  156.026894  54.710651  -153.129661  -17.045147  1.198946  87.486151  71.7931  -3.904829  -7.376348  3.578699  -12.282862  13.903722  52.951733  63.976771  8.174047  -20.170392  -32.858648  -115.063619  66.593302  5.338945  -10.350992  -15.735964  0.330396  9.910099  -11.811002  -0.007515  7.446936  
0.0  93.25843  0.0  -7.147408  21.18414  -96.622853  19.691126  -23.660623  28.340018  1.19628  0.243224  3.211305  6.271933  2.589124  4.077382  -23.32705  -19.397834  -23.952541  -13.077456  20.241381  27.040204  -4.765129  1.346115  2.846624  1.167007  -0.417231  1.494924  3.163035  -1.211765  4.065417  3.163035  -1.211765  4.065417  -23.001078  20.345407  5.556746  156.258999  56.278038  -152.970277  -17.562742  0.819441  88.388714  72.147676  -4.316654  -8.253514  3.398434  -12.095839  13.858631  58.811079  62.726275  12.500587  -20.759756  -30.963812  -115.777753  67.158707  5.132834  -10.911374  -14.98659  0.483793  9.94248  -11.251294  0.119035  7.474027  
0.0  93.25843  0.0  -7.052116  19.929369  -96.636479  19.984114  -23.603164  28.725533  1.63845  0.380183  3.581916  6.239195  2.666125  4.153892  -23.869704  -19.910513  -22.661091  -13.495387  20.163834  25.758333  -4.428991  1.511108  2.81566  1.070169  -0.442838  1.477117  2.897231  -1.275005  4.017503  2.897231  -1.275005  4.017503  -23.517321  20.341595  4.945193  156.153114  57.916188  -153.072106  -18.24462  0.499948  89.252625  72.58773  -4.697701  -9.193892  3.093837  -11.839638  13.741985  63.784662  61.347992  16.260209  -20.480209  -29.472721  -116.951811  67.853959  5.018913  -11.060303  -14.073324  0.709309  10.06603  -10.569952  0.300365  7.570535  
0.0  93.25843  0.0  -6.923463  18.359622  -96.730442  20.426287  -23.479548  29.175016  2.277469  0.50658  4.12103  6.265949  2.704352  4.255295  -23.748171  -20.295873  -21.384982  -13.681665  19.972981  24.866844  -4.032144  1.613398  2.638318  1.009004  -0.467682  1.465871  2.728845  -1.338708  3.986999  2.728845  -1.338708  3.986999  -24.098873  20.352851  4.256557  155.769541  59.576208  -153.507433  -19.10063  0.251216  90.070967  73.060948  -5.102738  -10.110469  3.195512  -11.756005  13.756573  68.251232  60.062662  19.891731  -21.654957  -27.769767  -117.327863  67.221378  4.673319  -11.969918  -13.233173  0.967876  10.199641  -9.944088  0.505411  7.674784  
0.0  93.25843  0.0  -6.818269  16.865266  -96.780366  20.730568  -23.267545  29.512942  3.105665  0.577569  4.860135  6.279075  2.702297  4.371998  -23.007175  -20.578957  -20.396052  -13.717622  19.689368  24.199241  -3.852165  1.70262  2.298007  0.927218  -0.495038  1.454335  2.503986  -1.408093  3.956177  2.503986  -1.408093  3.956176  -24.684446  20.33543  3.475665  155.038891  61.285391  -154.246169  -20.142174  0.003869  90.814354  73.491686  -5.558619  -10.942732  2.85993  -11.591518  13.816148  72.23788  58.984512  22.924387  -20.541282  -27.177449  -118.780232  67.781423  4.617789  -11.884756  -12.231708  1.254813  10.349226  -9.197796  0.734501  7.790432  
0.0  93.25843  0.0  -6.678215  15.246479  -96.877114  21.093658  -23.010917  29.811097  4.01201  0.560964  5.850804  6.240072  2.715518  4.464026  -21.571405  -20.662472  -19.690664  -13.421207  19.248315  23.782514  -3.955749  1.814379  2.077749  0.819216  -0.542094  1.435304  2.206533  -1.529577  3.905018  2.206533  -1.529577  3.905017  -25.14127  20.494575  2.643881  154.110849  62.997594  -155.259194  -21.28897  -0.270498  91.417894  73.904051  -6.065278  -11.751466  2.729845  -11.373538  14.091098  75.985727  58.084368  25.736125  -19.351873  -26.817691  -120.05202  68.144653  4.560402  -11.905607  -11.103988  1.665246  10.535084  -8.359061  1.058254  7.934126  
0.0  93.25843  0.0  -6.554803  13.593898  -96.960344  21.367796  -22.738819  29.967521  4.913046  0.500178  7.132841  6.106267  2.740327  4.553692  -19.72914  -20.662622  -19.301698  -12.931821  18.73511  23.702544  -4.022629  1.801428  2.023689  0.699514  -0.590048  1.407612  1.877328  -1.652764  3.830861  1.877328  -1.652764  3.830861  -25.632084  20.667428  1.795606  153.24544  64.724533  -156.353968  -22.372166  -0.523803  91.903224  74.38966  -6.523523  -12.579648  2.534062  -11.191408  14.419091  79.663169  57.219663  28.418163  -18.126778  -26.597354  -121.173394  68.276637  4.546799  -12.053135  -9.891787  2.077055  10.779247  -7.457424  1.384228  8.119697  
